<svg version="1.2" xmlns="http://www.w3.org/2000/svg" viewBox="0 0 40 40" width="40" height="40">
	<style>
		.s0 { fill: #e39e3d } 
	</style>
	<path class="s0" d="m30.05 21.22h-20.33c-1.04 0-1.9 0.84-1.84 1.88l0.49 8.28c0.05 0.9 0.75 1.68 1.7 1.68h19.61c0.99 0 1.68-0.77 1.73-1.68l0.49-8.27c0.06-1.05-0.8-1.88-1.84-1.88zm-10.09 7.93c-1.1 0.04-2.01-0.81-2.05-1.88-0.04-1.08 0.78-2.03 1.91-2.07 1.13-0.04 2 0.86 2.04 1.9 0.04 1.1-0.82 2.01-1.9 2.05z"/>
	<path class="s0" d="m23.47 17.83c-1.39 1.65-3.45 2.5-5.46 1.4-0.55-0.3-1.02-0.66-1.46-1.13-2.39-2.59-3.26-6.75-0.76-9.54 2.24-2.51 6.1-2.48 8.29 0.09 2.31 2.73 1.56 6.62-0.61 9.18z"/>
	<path class="s0" d="m27.96 20.66h-16.15c0.71-0.99 1.87-1.5 3.08-1.5h2.01c1.82 1.46 4.11 1.5 5.97 0h2.08c1.17 0 2.28 0.5 3.02 1.49z"/>
</svg>